<svg width="20" height="20" viewBox="0 0 20 20" fill="none" xmlns="http://www.w3.org/2000/svg">
<path d="M14.6611 2.00354L12.5024 2C10.0772 2 8.50991 3.64212 8.50991 6.18374V8.11271H6.33943C6.15188 8.11271 6 8.26799 6 8.45953V11.2544C6 11.446 6.15205 11.601 6.33943 11.601H8.50991V18.6534C8.50991 18.845 8.66178 19 8.84933 19H11.6812C11.8687 19 12.0206 18.8448 12.0206 18.6534V11.601H14.5584C14.7459 11.601 14.8978 11.446 14.8978 11.2544L14.8989 8.45953C14.8989 8.36756 14.863 8.27949 14.7995 8.2144C14.7359 8.14932 14.6493 8.11271 14.5593 8.11271H12.0206V6.47749C12.0206 5.69154 12.204 5.29255 13.2066 5.29255L14.6607 5.29202C14.8481 5.29202 15 5.13674 15 4.94538V2.35018C15 2.15899 14.8483 2.00389 14.6611 2.00354Z" fill="#787A80"/>
</svg>
