<svg width="20" height="20" viewBox="0 0 20 20" fill="none" xmlns="http://www.w3.org/2000/svg">
<path d="M18.6639 19.1668L18.6681 19.1661V13.0536C18.6681 10.0632 18.0243 7.75977 14.5285 7.75977C12.8479 7.75977 11.7201 8.682 11.2597 9.5563H11.2111V8.03894H7.89648V19.1661H11.3479V13.6563C11.3479 12.2057 11.6229 10.8028 13.4194 10.8028C15.1896 10.8028 15.216 12.4584 15.216 13.7494V19.1668H18.6639Z" fill="#787A80"/>
<path d="M2.27539 8.03955H5.73094V19.1667H2.27539V8.03955Z" fill="#787A80"/>
<path d="M4.00139 2.5C2.89653 2.5 2 3.39653 2 4.50139C2 5.60625 2.89653 6.52153 4.00139 6.52153C5.10625 6.52153 6.00278 5.60625 6.00278 4.50139C6.00209 3.39653 5.10556 2.5 4.00139 2.5Z" fill="#787A80"/>
</svg>
