<svg width="20" height="20" viewBox="0 0 20 20" fill="none" xmlns="http://www.w3.org/2000/svg">
<path d="M18.5 5.61041C17.8559 5.88369 17.1648 6.06902 16.4387 6.15176C17.1801 5.72663 17.7476 5.05233 18.0166 4.25129C17.3211 4.64499 16.5535 4.93087 15.7355 5.08584C15.0805 4.41675 14.1488 4 13.1153 4C11.1327 4 9.52523 5.53922 9.52523 7.43654C9.52523 7.70563 9.55694 7.96846 9.61819 8.21978C6.63501 8.07631 3.98973 6.70777 2.21928 4.62823C1.9098 5.13503 1.73374 5.72556 1.73374 6.35593C1.73374 7.54858 2.368 8.60091 3.33033 9.21658C2.742 9.19774 2.18866 9.04277 1.70423 8.78518V8.8281C1.70423 10.493 2.94213 11.8825 4.58353 12.1987C4.2828 12.2762 3.96568 12.3191 3.63761 12.3191C3.4058 12.3191 3.18161 12.2971 2.9618 12.2552C3.41889 13.6217 4.74429 14.6154 6.31463 14.6426C5.08657 15.564 3.5381 16.1117 1.85624 16.1117C1.56646 16.1117 1.28103 16.0949 1 16.0645C2.58893 17.0415 4.4753 17.6111 6.50273 17.6111C13.1066 17.6111 16.7165 12.3736 16.7165 7.8313L16.7044 7.3863C17.4097 6.9046 18.0199 6.2994 18.5 5.61041Z" fill="#787A80"/>
</svg>
